<svg xmlns="http://www.w3.org/2000/svg" fill="none" viewBox="0 0 946 240"><path fill="#fff" d="M242.8 119.2c0 11.4-4.5 17-14.2 17-9.6 0-14.1-5.5-14.1-17V2.2h-26.7v116c0 26.6 15.5 41.2 40.8 41.2 25.4 0 40.9-14.6 40.9-41.3V2.2h-26.7v117.1Z"/><path fill="#fff" fill-rule="evenodd" d="M62.3 75.6c13-5.1 18.5-19 18.5-32.4 0-26.4-12.7-41-41.2-41H0v155h42.1c30.4 0 41.7-19.3 41.7-44.8 0-20-8-30.8-21.5-36.8ZM26.7 24.1h10c11.9 0 17.5 7.5 17.5 21.9 0 12.8-7.8 19.7-17.9 19.7h-9.6V24.1Zm11.2 111.3H26.7V87.6h8.6c15.8 0 21.8 8 21.8 23.8 0 15.9-5 23.8-19.2 23.8Z" clip-rule="evenodd"/><path fill="#fff" d="M321.6 88.5H356V65.3h-34.4v-40h44.7V2.2H295v155h74.3v-23.1h-47.7V88.5ZM132.2 2.2h-26.7v155h68.6v-23.1h-42V2ZM808.5 157.3H835V2.2h-26.6v155ZM745.1 0c-27.9 0-40.8 17.8-40.8 39.8v79.9c0 21.9 13 39.7 40.9 39.7 0 0 14.6-.6 26.4-9.5l14 9.5V79h-43.3v21h19.3v19.8c0 17.4-14.8 16.5-14.8 16.5h-1.6c-10.8 0-14.2-5.6-14.2-17.2V40.4c0-11.6 3.4-17.2 14.2-17.2 10.7 0 14.2 5.6 14.2 17.2v12H786V39.8c0-22-12.9-39.8-40.9-39.8Z"/><path fill="#fff" fill-rule="evenodd" d="M481.5 0c-27.9 0-40.8 17.8-40.8 39.8v79.9c0 21.9 12.9 39.7 40.8 39.7 28 0 40.9-17.8 40.9-39.7v-80c0-21.9-13-39.7-40.8-39.7Zm14.2 119c0 11.6-3.4 17.2-14.2 17.2-10.7 0-14.1-5.6-14.1-17.2V40.4c0-11.6 3.4-17.2 14.1-17.2 10.8 0 14.2 5.6 14.2 17.2V119Z" clip-rule="evenodd"/><path fill="#fff" d="M921 2.2V94L884.6 2.2h-24.1v155h24V65.5l36.5 91.9h24V2.2h-24ZM652.6 157.3h26.7V2.2h-26.7v155Z"/><path fill="#fff" fill-rule="evenodd" d="M628.5 48c0-33.2-15.3-45.8-45.2-45.8H546v155h26.6V93.8c4.5 0 9-.2 13.4-.6l19 64.2h27.3L609.8 87c9-4 18.7-14.2 18.7-39ZM582 71.7h-9.4V24h9.4c14.4 0 19.8 5.3 19.8 23.8s-5.4 23.9-19.8 23.9Z" clip-rule="evenodd"/><path fill="#fff" d="M0 239v-32.2h24.8v3.4l-1.4 1.4H4.8v9.9h15.3v4.8H4.8V239H0Z"/><path fill="#fff" fill-rule="evenodd" d="M39.6 232.3c.2 4 3.5 7.1 7.6 7.1h14.2a7.5 7.5 0 0 0 7.1-7.8v-18c-.1-4-3.5-7.2-7.5-7.2H46.8a7.5 7.5 0 0 0-7.2 7.9v18Zm4.8-17.8c0-2.2 1-3.3 3.3-3.3h12.7c2.3 0 3.3 1 3.3 3.3v16.8c0 2.3-1 3.3-3.3 3.3H47.7c-2.2 0-3.3-1-3.3-3.3v-16.8ZM111.4 239l-8.2-11.9H92.5V239h-4.8v-32.2h19.8a7.6 7.6 0 0 1 7.6 8v4.5c0 2-.6 3.9-2 5.4a7.5 7.5 0 0 1-4.1 2.3l6.3 9.2v2.8h-4Zm-4.4-16.7c2.2 0 3.3-1 3.3-3.3v-4c0-2.3-1-3.4-3.3-3.4H92.5v10.7H107Z" clip-rule="evenodd"/><path fill="#fff" d="M164.3 211.6V239h4.8v-27.4h10.2l1.5-1.4v-3.4h-28.1v4.8h11.6ZM220.3 239v-14H202v14H197v-32.2h4.8v13.4h18.5v-13.4h4.7V239h-4.8ZM244.1 206.8V239h25v-4.8H249V225h15.7v-4.8H249v-8.6h18.8l1.4-1.4v-3.4h-25Z"/><path fill="#fff" fill-rule="evenodd" d="M331.5 239h-19.9v-32.2h19.5a7.5 7.5 0 0 1 7.5 8v1.7c0 2.9-1.3 4.7-2.7 5.6a7 7 0 0 1 3.2 6.2v2.8c.2 4-3 7.7-7.2 7.9h-.4Zm-.6-4.8c2.3 0 3.4-1 3.4-3.3V228c0-2.3-1.1-3.3-3.4-3.3h-14.5v9.4H331Zm-.4-14.2c2.3 0 3.3-1 3.3-3.3v-1.8c0-2.2-1-3.3-3.3-3.3h-14v8.4h14Z" clip-rule="evenodd"/><path fill="#fff" d="M357.7 206.8V239h25v-4.8h-20.2V225h15.8v-4.8h-15.8v-8.6h18.8l1.4-1.4v-3.4h-25ZM424.1 239 405 214.8V239h-4.8v-32.2h4.4l19.2 24.3v-24.3h4.8V239h-4.5ZM448.6 206.8V239h25v-4.8h-20.2V225h15.7v-4.8h-15.7v-8.6h18.8l1.4-1.4v-3.4h-25ZM491 239v-32.2H516v3.4l-1.5 1.4h-18.6v9.9h15.3v4.8h-15.3V239H491ZM532.4 206.8h4.8V239h-4.8v-32.2ZM565.1 239v-27.4h-11.6v-4.8h28v3.4l-1.4 1.4h-10.2V239h-4.8Z"/><path fill="#fff" fill-rule="evenodd" d="M619.4 232.3c.2 4 3.5 7.1 7.5 7.1h14.3a7.6 7.6 0 0 0 7.1-7.8v-18c-.2-4-3.5-7.2-7.5-7.2h-14.2a7.6 7.6 0 0 0-7.2 7.9v18Zm4.8-17.8c0-2.2 1-3.3 3.3-3.3h12.7c2.3 0 3.3 1 3.3 3.3v16.8c0 2.3-1 3.3-3.3 3.3h-12.7c-2.3 0-3.3-1-3.3-3.3v-16.8Z" clip-rule="evenodd"/><path fill="#fff" d="M666.4 239v-32.2h24.9v3.4l-1.5 1.4h-18.6v9.9h15.3v4.8h-15.3V239h-4.8ZM751.9 206.8h-30.3v32.6H752v-8.9h-20v-3.2h14.4v-8.4h-14.4v-3.3h16.7l3.3-3.2v-5.6Z"/><path fill="#fff" fill-rule="evenodd" d="m764.7 234.5 11.8-27.7H790l11.9 27.7v4.9h-10l-1.6-5h-14l-1.6 5h-10v-5Zm22.5-8.4-3.7-10h-.5l-3.7 10h8ZM840.4 206.8h-25.6v32.6h10.3v-10.7h5.8l8.8 10.7h9.3v-5l-6.3-6.7s5.6-.9 5.6-7v-6c0-4.9-3-7.9-7.9-7.9Zm-2.3 8.8v4.2h-13v-4.2h13Z" clip-rule="evenodd"/><path fill="#fff" d="M874.1 216.1h-11.9v-9.3h34v6l-3.3 3.3h-8.6v23.3h-10.2V216ZM920.8 206.8h-10.2v32.6h10.2v-11.7h14v11.7H945v-32.6h-10.2v11.6h-14v-11.6Z"/></svg>