<svg xmlns="http://www.w3.org/2000/svg" viewBox="0 0 80 40.76"><path fill="#fff" d="M80 9.52v-.65l-.37.13.16-.18h-.06l.16-.22a2.09 2.09 0 0 1-.37.13 3.13 3.13 0 0 1 .41-.29h-.2v-.06l.16-.13a.13.13 0 0 0 0-.12l-.09-.71V7.1a.21.21 0 0 0-.13-.16l-.34-.11v-.07h.35a.05.05 0 0 0 0-.06v-.31a1.52 1.52 0 0 0-.15-.5l-.18-.37v-.07a.11.11 0 0 0-.12-.06h-.31s-.06 0-.05-.06a.06.06 0 0 0-.06-.08.87.87 0 0 1-.23 0v-.07a3.07 3.07 0 0 0 .42-.26h-.07c-.07 0-.64-1-.67-1.06l-.54-.53h-.07L77.34 3a.21.21 0 0 0-.19 0 1.61 1.61 0 0 0-.42.28h-.06a1.9 1.9 0 0 0 .12-.43.25.25 0 0 0-.1-.23l-.27-.2-.74-.42a.26.26 0 0 0-.21 0l-.67.4a4.25 4.25 0 0 0 .21-.43c-.21.17-.44.38-.56.5l.34-.67a.05.05 0 0 0 0-.08h-.45L74 1.48h-.15c-.28 0-.42.56-.52.82a.42.42 0 0 1-.11.18 13.42 13.42 0 0 0-1 1.47c0 .05-.12 0-.1 0l1-2.5a.25.25 0 0 0-.15-.34h-.05a.2.2 0 0 0-.17 0 .22.22 0 0 1-.16 0h-.16a.07.07 0 0 0-.08 0 16.63 16.63 0 0 0-2.52 5.5h-.07c.49-3 1.06-5.55 1.17-6a15.39 15.39 0 0 0-.76 2.52 17.19 17.19 0 0 1 .11-2.6.09.09 0 0 0-.07-.09.07.07 0 0 0-.1 0l-.24.63a2.63 2.63 0 0 0 0-.48.35.35 0 0 0-.33-.29h-.12a.11.11 0 0 0-.13.08c-.16.67-.48 2-1.07 4.23a.08.08 0 0 1-.16 0 15.31 15.31 0 0 0-.13-4.47.17.17 0 0 0-.13-.14h-.39a.06.06 0 0 0-.06 0c0 .53-.14 1.64-.39 3.23h-.07c.06-1.1 0-2.43 0-3.06a.15.15 0 0 0-.13-.07l-1 .25a.35.35 0 0 0-.2.14 24.89 24.89 0 0 0-1.64 5.68h-.07A25.68 25.68 0 0 1 65.07.82.06.06 0 0 0 65 .74l-.46.26-.24.15a1 1 0 0 0-.33.39 25.91 25.91 0 0 0-1.08 3.64c0 .09-.16.06-.15 0a13.14 13.14 0 0 1 .85-3.45l-.87.73-1.26 1.16a1.5 1.5 0 0 0-.26.38l-.2.44h-.09v-.25c0-.19.1-.38.15-.57v-.09l.17-.42-.13.07a1.68 1.68 0 0 0-.16.33v-.22l-.19.15c0 .13-.07.26-.11.36s-.05 0-.05 0a1.65 1.65 0 0 1 0-.21 2.23 2.23 0 0 0-.26.33c-.07.23-.11.48-.18.7A2.14 2.14 0 0 0 60 5c-.13.56-.3 1.12-.42 1.68l-.15.6a.07.07 0 0 1 0 .06v.06a.91.91 0 0 0-.11.16v.06a.09.09 0 0 1-.16 0l-.21-.35a.49.49 0 0 0-.29-.22.68.68 0 0 1-.48-.05h-.07a.76.76 0 0 1-.11.38l-.19.31-.19.35v.11-.17l-.39 1.2c-.05 0-.08 0-.06-.11l.09-.46a.06.06 0 0 0-.1-.07.93.93 0 0 0-.33.45l-.06.18a.05.05 0 0 1-.09 0s0-.08-.08 0a3.56 3.56 0 0 1-.13.45s-.1.16-.11.19l-.09.33-.06.26h-.06v-.14h-.06a8.36 8.36 0 0 0-.63.94.06.06 0 0 1 0-.06v-.05l.32-1.39a3.3 3.3 0 0 0 .13-.38A13.58 13.58 0 0 1 56 8.13c.29-.94.32-1.28.24-1.34-.1 0-.34.25-.5.47A9.8 9.8 0 0 1 51.9 11l-.08.06-.9.54a58.7 58.7 0 0 1-3.18 1.72 4.41 4.41 0 0 0-1.46 1.11c-.07.09-.21.38-.22.39-.25.43-.41.88-.65 1.31-.09.16-.13.38-.23.54s-.24.56-.38.82a14.34 14.34 0 0 0-.82 1.84 8.81 8.81 0 0 0-.45 1.31 2.44 2.44 0 0 1-.1.24c-.08.37-.2.74-.3 1.11s.06-.32.1-.49c.15-.79.32-1.56.49-2.34.08-.33.23-.64.31-1a5.41 5.41 0 0 1 .27-.77l.12-.33c.18-.32.32-.66.51-1a5.47 5.47 0 0 1 .44-.63 5.3 5.3 0 0 0 .2-.61.07.07 0 0 0-.1-.06 1.88 1.88 0 0 0-.34.28l-.34.26-.11.09a20.55 20.55 0 0 1-1.91 1.21 6.31 6.31 0 0 0-1.31.95l-.12.11a4 4 0 0 0-.65.65c-.3.44-.59.9-.86 1.36-.11.19-.19.4-.3.6l-.06.17a4.87 4.87 0 0 0-.21.53l-.09.21c-.11.44-.28.86-.37 1.3-.21.94-.39 1.89-.58 2.83-.11.5-.29 1-.4 1.48a3.23 3.23 0 0 1-.3.72l-.32.49a10.14 10.14 0 0 1-.58 1 3.76 3.76 0 0 1-.25.31c-.07.07-.16.11-.21.18.08-.32.31-.61.39-.93a15.31 15.31 0 0 0 .36-1.66c.11-.79.09-1.61.13-2.43a28.05 28.05 0 0 1 .41-4.15A6.28 6.28 0 0 1 38 18.6c.09-.17.14-.38.24-.55s.24-.48.38-.72v-.24a.3.3 0 0 1 0-.08.08.08 0 0 0-.11-.1s-.08.1-.12.11h-.08l-.37.45a.25.25 0 0 0 0 .07v.09s-.22.2-.31.33-.23.39-.34.58 0 0 0-.05v-.29c0-.08 0-.06-.06 0a.69.69 0 0 1-.13.11c-.2.1-.42.57-.5.71s-.16.15-.22.23l-.21.5v.06-.06l.12-.54s0-.06-.06 0a7.59 7.59 0 0 0-1.74.86s-.06 0 0 0 .14-.18.16-.22a2.26 2.26 0 0 0-.34.23l-.76.51h-.09c-.09.09-.17.21-.26.31a.45.45 0 0 1-.19.14.46.46 0 0 0-.18.13l-.73.8a11.43 11.43 0 0 0-.85 1.03 4.9 4.9 0 0 0-.24.52v.13a.11.11 0 0 1-.07.06.09.09 0 0 1-.11-.1 2.13 2.13 0 0 1 0-.25 2.7 2.7 0 0 1 .48-1l.06-.1.1-.2h-.16a.41.41 0 0 0-.18.05l-.25.13a1.21 1.21 0 0 0-.3.25 3.25 3.25 0 0 0-.36.55c-.11.19-.15.43-.27.61s-.09.09-.13.15a3.14 3.14 0 0 0-.18.31c-.07.1-.16.16-.22.26s-.14.34-.23.5a6.47 6.47 0 0 0-.66 2.13v.34a3.44 3.44 0 0 0-.05.45v3.59a.06.06 0 0 1-.12 0c0-.37-.11-.77-.16-1.16 0-.24-.12-.44-.16-.69-.06-.48-.17-1-.23-1.44 0-.3-.12-.57-.13-.86a30.79 30.79 0 0 1 .17-3.49 4.56 4.56 0 0 0 0-.64v-.75a2.74 2.74 0 0 1 0-.57 2.62 2.62 0 0 0-.15.45v.28s0 .06-.06.05 0-.06 0-.12 0 0-.05 0l-.18.31a.15.15 0 0 1-.09.1 1.12 1.12 0 0 0-.16.28h-.07l-.09.16v-.05a1.72 1.72 0 0 0 .11-.29c0-.17.09-.34.12-.51a1.79 1.79 0 0 1 0-.24 6.71 6.71 0 0 0-.44.84 1.73 1.73 0 0 0-.16.3 3.27 3.27 0 0 1-.15.5c-.06.1-.17.16-.24.26l-.31.5a6.48 6.48 0 0 0-.93 2.29 6.37 6.37 0 0 0-.05.89 1.07 1.07 0 0 0 0 .31s-.05-.14-.06-.2c0-.21-.12-.38-.15-.58-.1-.58-.23-1.16-.32-1.71a.3.3 0 0 0-.12-.19 1.07 1.07 0 0 1-.07-.38v-.05h-.05a1.55 1.55 0 0 0 0 .21h-.07a.05.05 0 0 0-.08 0 1.27 1.27 0 0 0-.12.36.92.92 0 0 0 0 .16.32.32 0 0 1-.07.23h-.08a.36.36 0 0 0 0 .11c0-.12-.07-.23-.1-.35a.06.06 0 0 0-.12 0v1.45c0 .78.06 1.57.08 2.37 0 .52.14 1 .19 1.53s.1.81.14 1.23a2.52 2.52 0 0 0 .06.47 1.7 1.7 0 0 1-.16-.51l-.39-1.2a3 3 0 0 1-.24-.64c0-.19-.16-.35-.19-.52s-.07-.16-.11-.23a4.22 4.22 0 0 1-.26-.67l-.15-.35c-.08-.39-.35-.75-.43-1.12a2.59 2.59 0 0 0-.3-.65l-.33-.72c-.06-.07-.09-.19-.16-.28l-.08-.1a.08.08 0 0 0-.14.05 2.66 2.66 0 0 0 0 .41.07.07 0 0 1 0 .06.08.08 0 0 0 0 .05v.77a.05.05 0 0 1-.1 0 .75.75 0 0 1-.07-.12.05.05 0 0 0-.1 0 4.62 4.62 0 0 0-.06.66 2.88 2.88 0 0 0-.1.51 7 7 0 0 0 .15 1.07l.09.32c.06.37.25.77.33 1.15l.14.36c0 .22.19.44.23.68s.15.35.19.54.14.29.17.46.15.29.17.44a5.34 5.34 0 0 0 .28.72s0 .07-.05.06c-.15 0-.27-.2-.37-.29-.31-.31-.61-.66-.94-1a7.25 7.25 0 0 0-1.11-.91l-.43-.18h-.08c-.02 0-.24-.19-.37-.27l-.27-.08c-.18-.1-.35-.31-.55-.34s-.13 0-.2 0-.28-.1-.42-.12h-.11a.11.11 0 0 0-.1.13c0 .26.17.25.33.37s.08.11.14.14a.05.05 0 0 0 0 .09c.36.47.82.81 1.2 1.23a4.51 4.51 0 0 1 .44.54l.21.48.26.37c.07.09 0 .16 0 .22s.07.1.11.17a3 3 0 0 1-.5.12c-.27 0-.52.15-.78.2-.47.07-.92.26-1.38.34-.28 0-.5.16-.78.21-.93.16-1.87.51-2.8.67-.13 0-.21.07-.34.1-.55.09-1.09.3-1.65.39s-1 .27-1.52.36c-1.25.21-2.5.59-3.74.81-.11 0-.17.07-.27.09-.48.07-1 .24-1.46.33l-.43.12c-.76.13-1.54.46-2.32.61-.31.05-.59.19-.87.25l-.39.13c-.51.11-.69.36-.63.76.1.7.77.46 1.21.41.8-.07 1.62-.22 2.44-.34.4 0 .76-.18 1.16-.24 1.07-.16 2.15-.49 3.24-.67.41-.06.81-.21 1.21-.28l.33-.1c.44-.07.9-.23 1.33-.3l.52-.14c.6-.11 1.21-.33 1.8-.43l.63-.18c.66-.11 1.35-.38 2-.49l.73-.2c.95-.17 1.92-.58 2.88-.74a7 7 0 0 1 1.41-.34.08.08 0 0 1 .09.08.16.16 0 0 0 0 .06h.12s.05.21.13.24 0-.08 0-.13v-.18h.05a2.14 2.14 0 0 0 .17.37.24.24 0 0 1 .06.11 1.41 1.41 0 0 0-.07-.51.24.24 0 0 1 .06.11l.13.34c0 .27.11.54.15.79s.1.14.12.28 0 .29 0 .42a.75.75 0 0 1 0 .3h.11a.08.08 0 0 1 0 .08v.46a1 1 0 0 0 .11-.23 1.22 1.22 0 0 1 0 .48.39.39 0 0 0 .12-.26c0 .05 0 .08.07 0s.1-.21.16-.33 0 0 .05 0a1.88 1.88 0 0 0 .22-.81.41.41 0 0 0 0-.11.15.15 0 0 1 0-.11 1.33 1.33 0 0 0 .05-.19c0-.09.07-.19.09-.28a4.1 4.1 0 0 0-.17-1.59l.17.38c.2.28.31.61.51.87s.58.83.9 1.23c.11.15.18.33.29.47l.12.25c.23.31.38.74.62 1.06l.14.3.42.5a.06.06 0 0 0 .11 0s.13.18.2.25a1.88 1.88 0 0 0 .31.21s.09 0 .07-.06a4.85 4.85 0 0 1-.33-.87c0-.06-.07-.12-.08-.15a2 2 0 0 1-.14-.43c0-.27-.31-.48-.34-.69a2.15 2.15 0 0 0-.38-.94c-.06-.08-.08-.21-.13-.28a1 1 0 0 0 .19.12l.26.06v-.08a3.21 3.21 0 0 1-.3-.21c-.11-.11-.28-.24-.37-.35s-.05-.11-.07-.17l-.07-.09.12.15a6.15 6.15 0 0 0 1.11.77c.13.08.56.36.68.2a.23.23 0 0 0 .29 0 .92.92 0 0 0 .27.08 2.26 2.26 0 0 1 .2.13h.07a.12.12 0 0 0 .11-.21c-.18-.12-.39-.2-.57-.32l-.09-.08a.08.08 0 0 1 0-.14.06.06 0 0 1 .07 0h.08a2.33 2.33 0 0 1 .45.22 2.91 2.91 0 0 0 .88.33 4.2 4.2 0 0 0 1.1-.19l.19-.07a1.45 1.45 0 0 1 .36-.18c.1 0 .06-.15-.06-.13a1.82 1.82 0 0 1-1.17-.35l-.19-.11-.37-.34-.59-.63c-.21-.25-.4-.55-.61-.82a1.8 1.8 0 0 1-.19-.32 8.53 8.53 0 0 0 1 1.08l.16.18.62.53c1.43 1 4.28.47 4.28.47S35 36.62 35 36.6h.18a.07.07 0 0 0 0-.14.59.59 0 0 0-.14-.06 6.61 6.61 0 0 1-.63-.21 1.36 1.36 0 0 1-.28-.11A7.87 7.87 0 0 1 32 34.67c-.3-.27-.56-.6-.84-.89l-.1-.11h.05l.76.71a6.92 6.92 0 0 0 2.86 1.75c.17 0 .63.2.95.31a.93.93 0 0 0 .47 0 3.53 3.53 0 0 1 .46 0h.26v-.07a.56.56 0 0 1 .17-.09 3.82 3.82 0 0 1 .82-.06h.21v-.08h.43a.83.83 0 0 1 .22 0h.65v-.08a2.1 2.1 0 0 1-.37 0h-.32c-.28 0-.56-.1-.82-.15a9 9 0 0 1-1.4-.4l-.32-.51-.56-.28c-.18-.1-.64-.43-1-.66l-.04-.06a.1.1 0 0 1 0-.09.07.07 0 0 1 .11 0c.15.11.29.22.45.32a7.35 7.35 0 0 0 2.23 1c.36.08.73.22 1.1.28a4.2 4.2 0 0 0 .87 0c.1 0 .3-.07.42-.08a.61.61 0 0 0 .18 0v-.07a1.6 1.6 0 0 0 .58-.22c.1-.07.27-.25.42-.28a1.56 1.56 0 0 0 .36-.13h.16l.28-.13v-.07l-.24-.08h-.08a.2.2 0 0 1-.11 0 2.44 2.44 0 0 1-1.1-.16l-.25-.29h-.17l-.66-.37c-.37-.17-.69-.34-.83-.42s0-.07 0-.11a.06.06 0 0 1 .07 0 10.78 10.78 0 0 0 2.44.82l1 .23s.77.15 1.66.4c.65.17 1.27.45 1.9.67a1.85 1.85 0 0 0 .4.12h.23v-.05c-.09-.07-.21-.09-.3-.15l-.17-.14a.3.3 0 0 1-.08-.08s-.09 0-.12-.06l-.05-.08a.09.09 0 0 0 0-.05l-.16-.1a.06.06 0 0 1 .06 0 2.44 2.44 0 0 0 .24.1c.18 0 .37.11.56.15H46a2.55 2.55 0 0 0-.33-.11l-.18-.09-.59-.22A26.53 26.53 0 0 1 42 33a15 15 0 0 1-2.17-1.79l-.15-.14c-.11-.11 0-.29.16-.2.71.49 1.4 1 2.12 1.44.28.16.6.24.87.39a17.56 17.56 0 0 0 2 .68 2.71 2.71 0 0 0 .4 0h.24l.45-.24.46-.3.12-.1a.13.13 0 0 0-.09-.05 1.72 1.72 0 0 0 .6-.18.07.07 0 0 0-.05-.13 1.77 1.77 0 0 1-.48 0 2.07 2.07 0 0 1-.37-.09l-.34-.11a7.7 7.7 0 0 1-2.54-1.35l-.44-.35h.06l.55.35c.47.27 1 .5 1.42.77.15.08.34.11.49.2l.12.06a3.6 3.6 0 0 0 2.35.11 3.36 3.36 0 0 1 .83-.37 6.5 6.5 0 0 1 .69-.14h1.16a.17.17 0 0 1 0-.23.71.71 0 0 0 .14-.1.11.11 0 0 1 .08 0 1.94 1.94 0 0 0 .22-.07c.19 0 .57-.16.77-.19s1-.44 1.17-.42a5.18 5.18 0 0 1 .65-.19l.16-.08.36-.11a.12.12 0 0 0 .07-.17.08.08 0 0 0-.07-.05h-.17a.06.06 0 0 1 0-.06l.43-.13c.13 0 .27-.18.37-.18l.15-.07a.2.2 0 0 1-.11 0l.2-.1.48-.2.6-.3.51-.31.91-.64.27-.21 1-.81.1-.07a2.74 2.74 0 0 1 .92-.29c.07 0 .1-.05.14-.06A2.11 2.11 0 0 1 60 26h.25l.24.05H61a.65.65 0 0 0 .28-.08l.11-.08.07-.06.23-.22.11-.12.06-.07a.38.38 0 0 1 .15-.09l.09-.05a.38.38 0 0 1 .43.05c.06.05.09 0 .08 0a.59.59 0 0 0-.5-.29h-.61a.08.08 0 0 1-.09-.08.08.08 0 0 1 .07-.08h.12l.32-.06a2 2 0 0 0 .93-.42l.52-.64.43-.53A.12.12 0 0 1 64 23c.21-.13.39-.43.57-.57a2.5 2.5 0 0 1 .32-.15.56.56 0 0 0 .14-.09h-.07c.14-.12.33-.23.48-.34l.17-.08.12-.08a3.19 3.19 0 0 1 .62-.34l.13-.05a.66.66 0 0 1 .2-.06 3.24 3.24 0 0 1 .88 0l.46.15h.06a2.09 2.09 0 0 0 .37.13h.09a.29.29 0 0 0 .13 0h.15c.12-.07-.12-.17-.2-.2l-.27-.1-.7-.32a.21.21 0 0 1 .11-.33l.55-.12a.16.16 0 0 0 .08-.06.09.09 0 0 0-.09-.14h-.06s-.11 0-.13-.06.06-.1.08-.11l.21-.06h.07a4 4 0 0 0 1.06-.45l.83-.64.15-.1.15-.12 3.71-2.73h.12a.08.08 0 0 0 0-.07s0-.08-.08-.06h-.16a.09.09 0 0 1 0-.08l.17-.13.58-.4.6-.31.17-.11.28-.18.85-.64.35-.32.06-.07v-.05h-.08s.13-.08.08-.08a.05.05 0 0 1 0-.1h.2l.17-.08h-.16a2.07 2.07 0 0 0 .6-.32v-.08a2.57 2.57 0 0 0 .45-.49l.13-.41v-.1h-.28c-.1 0 0 0 0 0h.09a.87.87 0 0 0 .38-.25s.21-.27 0-.24h-.17a.78.78 0 0 0 .26-.2.3.3 0 0 0-.11 0 1.92 1.92 0 0 0 .29-.38v-.05s-.06 0 0 0a1.24 1.24 0 0 1 .1-.2.3.3 0 0 0 0-.08.35.35 0 0 1 .15-.17h.13a.64.64 0 0 0 .45-.19v-.06a.6.6 0 0 0 .01-.56z"/></svg>
