<svg id="Layer_1" data-name="Layer 1" xmlns="http://www.w3.org/2000/svg" viewBox="0 0 3205.85 487.45"><defs><style>.cls-1{fill:#2b3e60;}.cls-2{fill:#50a7ec;}.cls-3{fill:#51a7ec;}</style></defs><path class="cls-1" d="M872.43,384.36h-74.1L714.53,235.9l-49.39,58v90.48H603.39V76.89h61.75V164.3c0,11.42-.45,39.09-.89,48.76,4.41-7,15.88-21.09,24.26-31.19L775,76.89H849.5l-90.42,106.3Z"/><path class="cls-1" d="M987.1,384.36H925.36V76.89H987.1Z"/><path class="cls-1" d="M1290.11,137.5h-88.65V384.36h-61.75V137.5h-88.65V76.89h239Z"/><path class="cls-1" d="M1568.86,137.5H1480.2V384.36h-61.74V137.5H1329.8V76.89h239.06Z"/><path class="cls-1" d="M1893.91,76.89,1777,262.69V384.36h-61.74V264L1598.41,76.89h71l43.66,72.91c11,18.45,27.79,48.76,33.52,60.18,5.73-11.42,22.05-40.85,33.52-60.18l43.66-72.91Z"/><path class="cls-1" d="M2193.39,384.36h-61.75V255.22H2005.06V384.36h-61.75V76.89h61.75V194.61h126.58V76.89h61.75Z"/><path class="cls-1" d="M2538.52,384.36H2470.6l-24.26-68.52H2333.43l-24.25,68.52H2243l118.2-307.47h60ZM2425.17,257.42l-19.85-55.78c-6.17-18-12.34-36.46-15.43-47.88-3.09,11.42-9.26,29.87-15.44,47.88l-19.85,55.78Z"/><path class="cls-1" d="M2883.87,76.89l-64.39,307.47h-60.42l-37.94-158.13c-4.41-18.45-8.82-41.29-10.58-52.71-1.32,11.42-5.73,34.7-10.14,52.71l-38.82,158.13H2603.8L2539.41,76.89h64.39l26.91,149.78c2.64,14.94,6.17,37.78,7.5,50.52,2.2-12.74,7.05-35.58,10.58-50.52L2685,76.89h53.81l36.6,149.78c3.53,14.94,8.38,37.78,10.59,50.52,1.32-12.74,4.85-36,7.5-50.52l26.9-149.78Z"/><path class="cls-1" d="M3205.85,384.36h-74.1L3048,235.9l-49.4,58v90.48h-61.74V76.89h61.74V164.3c0,11.42-.44,39.09-.88,48.76,4.41-7,15.88-21.09,24.26-31.19l86.45-105h74.53l-90.41,106.3Z"/><path class="cls-2" d="M234.79,338.75a104.08,104.08,0,0,1-104-104c0-1.76,0-3.5.14-5.24q-15.3-15.84-29.61-31a137.79,137.79,0,0,0-4.86,36.27c0,76.26,62,138.29,138.29,138.29a137.91,137.91,0,0,0,36.06-4.79Q255.52,353.68,240,338.62C238.26,338.7,236.53,338.75,234.79,338.75Z"/><path class="cls-2" d="M234.79,130.83a104.08,104.08,0,0,1,104,104c0,1.74,0,3.47-.13,5.19q15.06,15.54,29.67,30.87a138,138,0,0,0,4.8-36.06c0-76.26-62-138.29-138.3-138.29a138.13,138.13,0,0,0-36.26,4.85q15.19,14.34,31,29.61C231.29,130.88,233,130.83,234.79,130.83Z"/><path class="cls-2" d="M306.74,402.12a181.12,181.12,0,0,1-72,14.84C134.34,417,52.62,335.24,52.62,234.79a181.22,181.22,0,0,1,15.06-72.44c-8.67-9.41-17-18.5-24.92-27.36a215,215,0,0,0-24.47,99.8c0,119.38,97.12,216.51,216.5,216.51a215.1,215.1,0,0,0,99.07-24.1c-8-7.37-15.73-14.47-22.82-21.06C309.62,404.83,308.17,403.44,306.74,402.12Z"/><path class="cls-3" d="M234.79,52.62C335.24,52.62,417,134.34,417,234.79a181,181,0,0,1-14.84,72c1.33,1.43,2.71,2.88,4,4.3,6.59,7.09,13.69,14.78,21.05,22.82a215.13,215.13,0,0,0,24.1-99.07c0-119.38-97.13-216.5-216.51-216.5A215.18,215.18,0,0,0,135,42.75c8.86,8,17.95,16.25,27.37,24.93A181,181,0,0,1,234.79,52.62Z"/><path class="cls-1" d="M483.55,459.26c-34.21-41.69-70.2-81.61-106.75-121q-40.47-43.59-82.08-86A61,61,0,0,0,219,176.63Q184.64,143,149.4,110.27C110.11,73.67,70.07,37.79,28.12,3.84A17.26,17.26,0,0,0,3.85,28.12c33.95,41.95,69.82,82,106.43,121.28q32.94,35.61,66.91,70.19a60.82,60.82,0,0,0,74.5,74.56Q294.46,336,338.3,376.79c39.35,36.56,79.27,72.54,121,106.75a17.25,17.25,0,0,0,24.28-24.28Z"/></svg>