<svg fill="none" height="27" viewBox="0 0 150 27" width="150" xmlns="http://www.w3.org/2000/svg"><path d="m147.764 16.8238c-.606-.3591-.746.1347-1.025.4489-.746.8979-1.491 1.7957-2.33 2.5589-.559.4938-.978.2244-.978-.4939 0-.3142.046-.6284.093-.9427.792-4.1749 2.283-8.0804 4.147-11.89617.745-1.52631 1.537-2.96283 2.329-4.48913-.606-.22446-1.165-.49381-1.77-.67337-1.491-.493809-2.283-.26935-3.029 1.07739-.605 1.07739-1.071 2.19967-1.584 3.32196-.605 1.39163-1.164 2.78326-1.724 4.17489-1.723-1.43652-3.447-1.66098-5.404-.5387-3.075 1.79563-4.659 4.53403-5.171 7.85603-.187 1.3018-1.072 1.9752-2.097 2.6037-.373.2244-.559 0-.652-.3143-.047-.1795 0-.3142.047-.4938.326-1.8405 1.304-3.4117 2.096-5.0278.466-.8978.839-1.8406 1.165-2.7833.372-1.1672-.14-2.02009-1.398-2.33433-1.398-.31424-2.749-.26935-3.68.94272-1.258 1.57121-2.423 3.18731-3.634 4.80341-.187.2693-.373.5835-.513.8529-.093-.0449-.14-.0898-.233-.1347.932-1.9303 2.842-5.70118 2.796-5.92563-.094-.17957-1.072-.44892-1.631-.62848-1.677-.5387-2.516-.22446-3.168 1.34671-.746 1.8855-1.351 3.8158-2.05 5.7461-.093.2694-.186.6285-.419.8081-.792.7182-1.631 1.3916-2.516 1.9752-.653.404-1.398.7182-2.143.9427-.932.2693-1.631-.1347-1.771-1.0325-.093-.7183.047-1.4814.047-2.2446.046 0 .046-3.277 2.842-5.4767.419-.3143.838-.6734.978-.6285s.373.6285.419 1.1223c.047.4938-.419 2.3792-1.351 3.2322-.186.1795-.512.4489-.745.4489s-.466-.0898-.652-.1796c-.14.6285-.233 1.2121-.28 1.7957 1.771.404 3.028-.0449 4.24-1.5263 1.211-1.5263 1.351-3.322.792-5.1176-.233-.7632-.885-1.25701-1.677-1.43657-2.004-.44891-3.821-.13467-5.358 1.16717-2.749 2.3344-3.96 5.2972-3.821 8.8436 0 .3142.094.6734.14.9427-.139.0449-.279.0449-.419.0898-.093-.2693-.28-.4938-.606-.7183-.466-.3591-1.025-.6733-1.584-.8529-1.444-.4938-2.935-.9427-4.379-1.4365-1.1183-.3592-2.2364-.7183-3.2614-1.2121-1.1181-.5836-1.5374-1.6161-1.1181-2.7833.2795-.8529.6988-1.6609 1.2579-2.3792 1.7238-2.19967 4.0066-3.81575 6.6156-4.93804.559-.22445 1.211-.35913 1.817-.44891.792-.04489 1.258.35913 1.165 1.16717-.093.71827-.28 1.48142-.559 2.19968-.979 2.4241-2.143 4.8034-5.172 5.7012.559.6734 1.025 1.3916 1.631 1.9752.792.7632 1.77.7183 2.656.0449.465-.3591.885-.7631 1.211-1.2121 1.351-1.8854 2.143-3.9953 2.702-6.19496.28-1.16718.466-2.28946.093-3.45663-.792-2.46903-3.634-3.45664-5.87-3.27707-1.537.13467-2.982.62848-4.2397 1.43652-1.4442.94272-3.0749.71826-4.7521 1.07739.5125-.94271.9784-1.79565 1.4909-2.69348-.8386-.26934-1.5841-.628475-2.4227-.80804-.9318-.224457-1.6772.089783-2.1897.89783-.5124.80804-.9318 1.70587-1.3511 2.5588-.1397.31424-.3261.44892-.6988.40402-1.1647-.08978-2.3761-.04489-3.4942-.17956-1.3977-.17957-2.8419-.31424-3.6805-1.75076-.1864.71826-.4193 1.39163-.4659 2.065-.0466.85293.2329 1.30185 1.1181 1.5712.8386.22445 1.7238.40402 2.609.4938 1.1181.13467 2.2363.13467 3.401.17957-.0932.22445-.1863.40402-.2329.58358-.8852 2.73839-1.9102 5.47679-2.6556 8.25999-.4193 1.5263-1.3511 2.5588-2.5158 3.5015-.1864.1347-.5125.2694-.7455.1796-.2795-.0898-.2329-.4489-.1863-.7631.0932-.3143.0466-.2245.0932-.3143.7454-1.7956 1.4442-3.6362 2.2362-5.4318.5591-1.3019 1.3045-2.514 1.9568-3.86069-.792-.26935-1.4909-.5387-2.1897-.76315-1.2113-.31424-1.9568-.0449-2.5624 1.0325-.3727.67334-.6989 1.39164-1.025 2.10984-1.3977 2.6935-3.0749 5.2523-5.1248 7.5418-.2329.2244-.7454.5387-.8852.4938s-.3261-.6285-.1864-1.1223c.4193-1.2121.7921-2.4241 1.3511-3.5913.8852-1.9303 1.8636-3.7709 2.7954-5.74608-.6523-.22446-1.3511-.5387-2.0499-.71826-1.3511-.40403-2.1897-.08979-2.7488 1.16717-1.2113 2.55877-2.3295 5.11757-2.8885 7.90087-.0932.5387-.3262.9876-.6989 1.3916-1.5374 1.7059-3.4476 2.6935-5.7305 3.0078-2.9351.404-4.8918-1.4366-4.3328-4.2647.2796-1.4365.6989-2.8731 1.2579-4.2647 1.1182-2.8282 2.6556-5.47674 4.8919-7.63152.8852-.85294 1.9102-1.48142 3.1681-1.52631 1.025-.04489 1.3977.40402 1.2113 1.34674-.3727 1.88544-2.1897 3.6362-4.2862 3.99533.4659.58356.8386 1.16716 1.3511 1.66096 1.2113 1.1223 2.2829 1.0325 3.4476-.1347.3261-.3142.6057-.6733.7454-1.0773.5125-1.34679 1.1182-2.69353 1.4443-4.08516.5125-2.065-.6988-3.81576-2.8885-4.17489-1.1648-.17957-2.3761-.17957-3.5408.04489-2.3761.40402-4.2862 1.75076-5.8703 3.50152-2.9351 3.27707-5.1248 6.91324-5.6373 11.31264-.1398 1.3018-.8852 2.0201-1.817 2.6935-.6056.404-1.0249.1795-.9783-.5387 0-.4938.0931-.9876.1863-1.4815.8852-4.1748 2.4227-8.08039 4.3328-11.94105.6523-1.30184 1.3511-2.60369 2.0499-3.90554-.5124-.17957-.9783-.40402-1.4908-.583589-1.817-.67337-2.5624-.404022-3.4942 1.256959-.0932.17956-.1864.31424-.233.4938-.7454 1.70587-1.4908 3.41174-2.2362 5.16251-.233.4938-.4193 1.0325-.5591 1.43652-.6988-.35913-1.3045-.76315-1.9568-.94272-1.4908-.44891-2.8419 0-4.0532.85294-2.5158 1.70587-4.0067 4.08507-4.5658 7.00307-.1863 1.0325-.5125 1.9303-1.3511 2.6037-.3727.2693-.9783.7182-1.2579.5836-.559-.2694-.2795-.8979-.0932-1.3468.5591-1.4365 1.2114-2.8281 1.817-4.2198.4659-1.0325.9318-2.0201 1.3045-3.0526.3262-.9427 0-1.61607-.6988-2.06498-.8852-.5387-3.2147-.62848-4.0999.44891-.792.94277-1.6306 1.84057-2.376 2.82817-.7455.9876-1.3977 2.065-2.05 3.0975-.0465-.0449-.1397-.0449-.1863-.0898.9318-1.9752 1.8636-3.9504 2.7953-5.97054-.5124-.17956-1.0715-.44891-1.6772-.62848-1.6306-.4938-2.4692-.17956-3.1214 1.34674-.6523 1.48138-1.3045 2.96278-1.6773 4.53398-.3261 1.4815-1.1181 2.514-2.3294 3.3669-1.025.7183-2.0034 1.4365-3.2613 1.661-.6056.0898-1.0715-.0449-1.3511-.404-.0931-.0898-.1397-.2245-.1863-.3592-.0466-.3142-.0932-.5836-.0932-.8978-.0932-1.3916.0932-2.8282.6057-4.2198.4659-1.1672 1.9101-2.7384 2.2828-3.0077.3727-.2694.7921-.62849.9318-.5836.1398.0449.1864.6734.2796 1.0325v.1796c0 1.1223-.3262 2.1548-1.0716 3.0077-.2795.2693-.6522.5387-1.025.5836-.1397 0-.3727-.2694-.4193-.0898s0 0 0 .0449c-.1397.5836-.792 1.5712-.2795 1.7956.5125.1796 2.0965 0 3.0749-.6284 2.1897-1.4366 2.4692-4.3545 1.9102-5.97059-.2796-.85293-.9318-1.43652-1.817-1.61608-2.1897-.44892-4.1465.04489-5.7305 1.57119-2.5624 2.33438-3.6806 5.20738-3.4942 8.48448 0 .0898-.0466-.0898.0466.3142.0932.3592-.4193.1347-.6057.2245-.3261-.3143-.8386-.6285-1.5374-.9427-1.3977-.5836-2.842-.9428-4.28624-1.4366-1.11814-.3591-2.28287-.6733-3.35443-1.1671-1.39768-.6734-1.86357-1.8406-1.35109-3.2771.27954-.7632.69884-1.4814 1.21132-2.1099 1.67722-2.10989 3.82034-3.68108 6.28954-4.75848.6523-.31424 1.4443-.4938 2.1897-.53869.7454-.08978 1.1647.35913 1.1182 1.07739-.0466.67337-.1864 1.34674-.4193 1.93033-.9784 2.55885-2.0966 5.02785-5.1715 5.97055.233.3591.4193.7631.6989 1.1672 1.3045 1.7956 2.8419 1.8405 4.2862.1795 1.5374-1.7956 2.3295-3.9504 2.9351-6.15008.3261-1.16717.6057-2.37924.3261-3.5913-.6056-2.82816-3.7271-3.95044-6.01-3.68109-2.2828.26934-4.2396 1.30184-6.05658 2.5588-2.1897 1.39163-3.96009 3.14239-4.93846 5.52164-1.071557 2.60373-.4659 4.71363 1.77039 6.41943 1.91016 1.4365 4.09986 2.1997 6.38273 2.7833.37272.0898.69882.3142 1.02492.4938-.2329.3591-.2329.5836-.93174 1.2121-.69884.6284-3.07489 1.5712-4.7987 1.8405-1.63062.2694-3.21466.2694-4.425978-1.2121-.139768.3143-.232947.5836-.326125.853-.559072 2.0201.279535 3.6362 2.376053 4.0851.93179.1796 1.95675.2693 2.88854.1347 3.49419-.449 6.42935-2.065 8.99175-4.3096.792-.5387 1.6306-.9876 2.4692-1.2121.8852 1.1672 2.4227 1.8855 4.0999 1.7059 1.4908-.1347 2.7487-.808 3.9135-1.6161.6056-.4489 1.2113-.9427 1.8635-1.4365.0466.404.0466.7631.0932 1.0774.1398 1.3467.9784 2.1997 2.2829 2.2894.4659.0449.6988-.0897.9318-.5387.9784-1.9303 1.9567-3.8606 3.0283-5.7461.7454-1.2569 1.6306-2.3792 2.4692-3.5913-.1863.9876-.5125 1.9304-.792 2.8731-.4193 1.5263-.8386 3.0526-.5125 4.6238.2795 1.3916 1.3977 2.1548 2.842 1.7956.792-.1795 1.4908-.6733 2.2362-1.1222.4659-.2694.8387-.7183 1.258-1.0774 1.0715 2.9628 4.2396 3.4566 6.2429 1.1671.3261-.3591.8386-.7182.9318-1.1222.1398-.3592-.3261-1.8855-.1864-2.3344.0932-.4489-.8386.4489-1.0715.6734-.6057.4938-1.1647.2693-1.3511-.4489-.0932-.3143-.0932-.6285-.1398-.8979.2796-2.3792 1.3045-4.3993 3.0283-6.0603.2796-.3142.8386-.4938 1.258-.4938.792-.0449 1.351.7632.9783 1.4814-.6988 1.3917-2.0499 3.7709-2.0965 4.534-.0466.7632.1398 1.3019.233 1.8855.0465.2693.0931.5387.1863.7631.0932.2694.1398.4938.233.7632.0931.6285.3261 1.1672.6988 1.5712.8386.9427 2.2363 1.2121 3.634.4489.5124-.2693.9783-.6285 1.4442-.9876.2796-.2245.5125-.4489.792-.7183.1398.4938.1864.8979.3262 1.3019.8386 2.873 2.9351 4.4442 6.0566 4.4442 2.4226 0 4.5657-.808 6.3827-2.2445 1.025-.8081 1.9568-1.7508 2.9351-2.6486.0932.1346.1864.3142.2796.4489.792 1.4814 4.0067 1.7956 4.8918.3591.6057-.9876 1.3511-1.8405 2.05-2.7833.1397-.1795.2329-.3591.3727-.5387.0466.6734.0466 1.3019.0932 1.9304.2329 1.6161 1.584 2.4241 3.1215 1.8405.6988-.2693 1.351-.6733 1.9567-1.1223.5125-.3591.8852-.8978 1.3977-1.4365.0932.3591.1397.5836.2329.7632.4193 1.3467 1.6307 2.1099 3.0283 1.8854.5591-.0898 1.1648-.3591 1.6307-.7183 1.584-1.0325 2.7021-2.4241 3.5873-3.9953.3262-.5387.1398-.8529-.3727-1.1672-.5125-.3142-.7454 0-.9318.3592-.2795.4489-.559.8529-.8852 1.2569-.4659.5387-.9783 1.0774-1.584 1.4814-.5125.4041-.9318.1347-.9318-.4938 0-.3142.0466-.6733.0932-.9876.6522-3.6362 1.9567-7.0928 3.4942-10.45965.4659-1.07739.5125-1.0774 1.584-1.0325-.6988 1.16717-1.4908 2.37924-2.0965 3.68105-.6988 1.5263-.6988 3.1424.3261 4.5341.5591.7631 1.3045 1.4365 2.0966 1.9752 1.8169 1.2569 3.9135 1.9752 6.0562 2.469.932.2245 1.072.5387.373 1.257-.093.0897-.186.1795-.279.2693-1.864 1.3019-3.914 2.0201-6.1968 2.1548-1.2579.0898-2.3761-.2245-3.1681-1.257-1.3511 2.1997-.3727 4.4892 2.1897 4.8932 1.1647.1796 2.376.1347 3.5408-.0449 3.0744-.5387 5.6834-2.1099 8.0134-4.0402.186-.1347.326-.3143.466-.4489.745-.2694 1.491-.4938 2.283-.6285.885 1.0325 2.283 1.5712 3.867 1.4365 1.863-.1347 3.307-1.0774 4.659-2.1548.372-.2693.698-.5836 1.118-.8978.046.4938.046.8529.093 1.257.14 1.2569 1.025 2.065 2.236 2.1547.513.0449.792-.0897 1.025-.5835 1.351-3.0975 3.028-6.0155 5.125-8.709.093-.1346.233-.2693.326-.404-.093.6734-.326 1.257-.512 1.8406-.513 1.5712-.932 3.1423-.886 4.8033.094 2.0201 1.678 3.1424 3.541 2.3793.373-.1347.746-.3592 1.072-.5836.605-.4489 1.164-.9427 1.817-1.4814.046.0898.093.1346.093.2244 1.071 2.6037 3.68 3.1873 5.777 1.257.419-.3591.839-.8081 1.118-1.1672.28-.3591-.186-1.661-.279-2.3343-.094-.5387-.466.1346-.699.3591-.653.5387-1.165.3591-1.398-.404-.093-.3143-.093-.6285-.186-.9428.326-2.3792 1.304-4.4442 3.075-6.1501.559-.5387 1.257-.5836 1.77-.2244.466.3142.745.6733.419 1.2569-.605 1.1672-1.397 2.4691-1.77 3.4567s0 3.0975.326 4.3544c.28 1.3019 1.072 2.4242 2.469 2.6037.839.1347 1.584-.2244 2.237-.6285 1.584-1.0325 2.748-2.3792 3.68-3.9953.466-.5387.373-.808-.186-1.1223z" fill="#fff"/></svg>